<svg xmlns="http://www.w3.org/2000/svg" width="800" height="800" fill="none"><path stroke="#5c6570" stroke-linecap="round" stroke-width="2.267" d="m121.9 204.6 2.1-3 2.1-3.1 2.1-3.1 2.1-3 2.2-3 2.3-3 2.2-2.9 2.3-3 2.3-2.9 2.4-2.8 2.4-2.9 2.4-2.8 2.5-2.8 2.5-2.8 2.5-2.7 2.5-2.7 2.6-2.7 2.7-2.6 2.6-2.6 2.7-2.6 2.8-2.5 2.7-2.6 2.8-2.4 2.8-2.5 2.9-2.4 2.9-2.4 2.9-2.3 2.9-2.3 3-2.2 3-2.3 3-2.2 3-2.1 3.1-2.1 3.1-2.1 3.2-2 3.1-2 3.2-1.9 3.2-1.9 3.2-1.9 3.3-1.8 3.3-1.8 3.3-1.8 3.3-1.7 3.3-1.6 3.4-1.7 3.3-1.5 3.4-1.6 3.4-1.5 3.5-1.4 3.4-1.5 3.5-1.3 3.4-1.4 3.5-1.3 3.5-1.2 3.5-1.2L284 80l3.6-1.1 3.5-1.1 3.6-1.1 3.6-1 3.5-1 3.6-.9 3.6-.9 3.6-.9 3.6-.8 3.6-.8 3.7-.7 3.6-.7 3.6-.7 3.7-.6 3.6-.6 3.7-.6 3.6-.5 3.7-.5 3.7-.5 3.6-.4 3.7-.4 3.7-.4 3.6-.3 3.7-.3 3.7-.2 3.7-.2 3.6-.2 3.7-.1 3.7-.2h3.7l3.7-.1h7.3l3.7.1 3.7.1 3.7.1 3.7.1 3.7.2 3.6.3 3.7.2 3.7.3 3.7.3 3.6.4 3.7.4 3.7.4 3.6.5 3.7.5 3.6.5 3.7.6 3.6.6 3.7.7 3.6.6 3.6.8 3.7.7 3.6.8 3.6.8 3.6.9 3.6.9 3.6 1 3.5.9 3.6 1.1 3.6 1 3.5 1.1 3.5 1.2 3.6 1.2 3.5 1.2 3.5 1.3 3.4 1.3 3.5 1.3 3.5 1.4 3.4 1.4 3.4 1.5 3.4 1.5 3.4 1.5 3.4 1.6 3.3 1.7 3.4 1.6 3.3 1.8 3.3 1.7 3.2 1.8 3.3 1.8 3.2 1.9 3.2 1.9 3.2 2 3.1 2 3.1 2 3.1 2.1 3.1 2.1 3.1 2.2 3 2.2 3 2.2 2.9 2.3 3 2.3 2.9 2.3 2.8 2.4 2.9 2.4 2.8 2.5 2.8 2.5 2.7 2.5 2.7 2.5 2.7 2.6 2.7 2.6 2.6 2.7 2.6 2.7 2.5 2.7 2.6 2.7 2.5 2.8 2.4 2.8 2.4 2.8 2.4 2.9 2.4 2.9 2.3 2.9 2.3 2.9 2.2 3 2.2 3 2.2 3 2.1 3 2.1 3 2.1 3.1 2.1 3.1 2 3.1 1.9 3.2 2 3.1 1.9 3.2 1.9 3.2 1.8 3.2 1.8 3.2 1.8 3.3 1.7 3.2 1.7 3.3 1.7 3.3 1.6 3.3 1.6 3.4 1.6 3.3 1.6 3.3 1.5 3.4 1.4 3.4 1.5 3.4 1.4 3.4 1.4 3.4 1.3 3.4 1.3 3.5 1.3 3.4 1.3 3.5 1.2 3.5 1.2 3.5 1.1 3.5 1.2 3.5 1.1 3.5 1 3.5 1.1 3.5 1 3.6.9 3.5 1 3.6.9 3.6.8 3.6.8 3.6.8 3.6.8 3.6.7 3.6.7 3.6.7 3.7.6 3.6.6 3.6.6 3.7.5 3.6.5 3.7.4 3.7.4 3.7.4 3.6.3 3.7.3 3.7.3 3.7.2 3.7.2 3.7.1 3.7.1 3.7.1 3.8v3.7l-.1 3.7v3.7l-.1 3.7-.2 3.7-.2 3.7-.2 3.8-.3 3.7-.3 3.7-.4 3.7-.4 3.7-.5 3.7-.5 3.7-.6 3.7-.6 3.6-.6 3.7-.7 3.7-.7 3.6-.8 3.7-.8 3.6-.9 3.6-.9 3.7-1 3.6-1 3.6-1 3.5-1.1 3.6-1.2 3.6-1.2 3.5-1.2 3.5-1.3 3.5-1.3 3.5-1.4 3.5-1.4 3.4-1.4 3.5-1.5 3.4-1.6 3.4-1.5 3.4-1.7 3.3-1.6 3.4-1.7 3.3-1.8 3.3-1.7 3.2-1.9 3.3-1.8 3.2-1.9 3.2-2 3.2-1.9 3.2-2 3.1-2.1 3.1-2.1 3.1-2.1 3-2.1 3.1-2.2 3-2.2 3-2.2 2.9-2.3 2.9-2.3 2.9-2.4 2.9-2.3 2.9-2.4 2.8-2.5 2.8-2.4 2.8-2.5 2.7-2.5 2.7-2.5 2.7-2.6 2.7-2.6 2.6-2.6 2.7-2.6 2.5-2.7 2.6-2.7 2.5-2.7 2.5-2.7 2.5-2.8 2.5-2.7 2.4-2.8 2.4-2.8 2.4-2.9 2.3-2.8 2.4-2.9 2.3-2.9 2.2-3 2.3-2.9 2.2-3 2.2-2.9 2.1-3.1 2.2-3 2.1-3 2-3.1 2.1-3.1 2-3.1 2-3.1 2-3.1 1.9-3.2 1.9-3.1 1.9-3.2 1.9-3.2 1.8-3.3 1.8-3.2 1.7-3.3 1.7-3.3 1.7-3.3 1.7-3.3 1.6-3.3 1.6-3.4 1.6-3.3 1.5-3.4 1.5-3.4 1.5-3.4 1.4-3.5 1.4-3.4 1.4-3.5 1.3-3.5 1.3-3.5 1.2-3.5 1.2-3.5 1.2-3.5 1.1-3.6 1.1-3.5 1.1-3.6 1-3.6 1-3.6.9-3.6.9-3.7.8-3.6.8-3.6.8-3.7.7-3.7.7-3.6.6-3.7.6-3.7.5-3.7.5-3.7.4-3.7.4-3.7.4-3.7.3-3.8.2-3.7.2-3.7.2-3.7.1-3.8.1h-7.4l-3.8-.1-3.7-.1-3.7-.2-3.8-.2-3.7-.3-3.7-.3-3.7-.3-3.7-.4-3.7-.5-3.7-.5-3.7-.5-3.7-.6-3.7-.6-3.6-.7-3.7-.7-3.6-.8-3.7-.8-3.6-.8-3.6-.9-3.6-.9-3.6-1-3.6-1-3.5-1.1-3.6-1.1-3.5-1.1-3.5-1.2-3.5-1.2-3.5-1.3-3.5-1.2-3.5-1.4-3.4-1.3-3.5-1.4-3.4-1.5-3.4-1.4-3.4-1.5-3.3-1.6-3.4-1.5-3.3-1.6-3.3-1.7-3.3-1.6-3.3-1.7-3.3-1.8-3.2-1.7-3.2-1.8-3.2-1.9-3.2-1.8-3.2-1.9-3.1-1.9-3.2-1.9-3.1-2-3.1-2-3.1-2-3-2.1-3.1-2.1-3-2.1-3-2.1-3-2.2-2.9-2.2-3-2.2-2.9-2.2-2.9-2.3-2.9-2.3-2.8-2.3-2.9-2.4-2.8-2.4-2.8-2.4-2.8-2.4-2.7-2.5-2.7-2.4-2.7-2.5-2.7-2.6-2.7-2.5-2.6-2.6-2.6-2.7-2.6-2.6-2.6-2.7-2.5-2.7-2.5-2.7-2.5-2.7-2.4-2.8-2.4-2.8-2.4-2.8-2.4-2.9-2.3-2.9-2.3-2.9-2.3-2.9-2.2-3-2.3-3-2.1-3-2.2-3-2.1-3.1-2.1-3.1-2-3.1-2-3.1-2-3.2-1.9-3.1-1.9-3.2-1.8-3.3-1.9-3.2-1.7-3.3-1.8-3.3-1.7-3.3-1.6-3.4-1.6-3.3-1.6-3.4-1.6-3.4-1.4-3.4-1.5-3.5-1.4-3.4-1.4-3.5-1.3-3.5-1.2-3.5-1.3-3.5-1.2-3.5-1.1-3.6-1.1-3.6-1-3.6-1-3.5-1-3.7-.9-3.6-.9-3.6-.8-3.6-.8-3.7-.7-3.6-.7-3.7-.6-3.7-.6-3.7-.6-3.6-.5-3.7-.4-3.7-.4-3.7-.4-3.7-.3-3.8-.3-3.7-.2-3.7-.2-3.7-.2-3.7-.1-3.7-.1-3.7v-7.5l.1-3.7.1-3.7" opacity=".5"/><path stroke="#b8863f" stroke-linecap="round" stroke-width="2.267" d="m86.8 394.3-.1-3.5-.1-3.5v-3.4l.1-3.5.1-3.5.1-3.4.2-3.5.2-3.5.2-3.4.3-3.5.4-3.4.4-3.5.4-3.4.5-3.5.5-3.4.6-3.5.7-3.4.6-3.4.8-3.4.7-3.4.9-3.4.8-3.4 1-3.3.9-3.4 1.1-3.3 1-3.3 1.1-3.3 1.2-3.3 1.2-3.2 1.2-3.3 1.3-3.2 1.4-3.2 1.3-3.2 1.5-3.2 1.4-3.2 1.5-3.1 1.6-3.1 1.6-3.1 1.6-3.1 1.6-3 1.7-3 1.8-3 1.7-3 1.8-3 1.9-2.9 1.8-2.9 1.9-2.9 2-2.9 1.9-2.8 2-2.9 2-2.8 2-2.7 2.1-2.8 2.1-2.7 2.1-2.8 2.1-2.6 2.2-2.7 2.2-2.7 2.2-2.6 2.2-2.6 2.3-2.6 2.2-2.6 2.3-2.6 2.3-2.5 2.4-2.5 2.3-2.5 2.4-2.5 2.3-2.4 2.5-2.5 2.4-2.4 2.4-2.4 2.5-2.4 2.5-2.4 2.5-2.3 2.5-2.3 2.5-2.3 2.6-2.3 2.5-2.3 2.6-2.3 2.6-2.2 2.7-2.2 2.6-2.2 2.7-2.1 2.7-2.2 2.7-2.1 2.8-2.1 2.7-2 2.8-2.1 2.8-2 2.8-2 2.9-1.9 2.8-1.9 2.9-1.9 2.9-1.9 3-1.8 2.9-1.8 3-1.8 3-1.7 3-1.7 3.1-1.7 3.1-1.6 3.1-1.6 3.1-1.5 3.1-1.5 3.1-1.5 3.2-1.4 3.2-1.4 3.2-1.4 3.3-1.2 3.2-1.3 3.3-1.2 3.3-1.2 3.2-1.1 3.4-1 3.3-1 3.3-1 3.4-.9 3.4-.9 3.4-.8 3.3-.8 3.4-.8 3.5-.6 3.4-.7 3.4-.6 3.5-.5 3.4-.5 3.5-.4 3.4-.4 3.5-.4 3.4-.3 3.5-.2 3.5-.2 3.4-.2 3.5-.1 3.5-.1 3.4-.1h3.5l3.5.1 3.4.1 3.5.1 3.4.2 3.5.2 3.4.2 3.5.3 3.4.3 3.4.3 3.5.4 3.4.4 3.4.5 3.4.4 3.4.5 3.4.6 3.4.5 3.4.6 3.4.7 3.3.6 3.4.7 3.4.7 3.3.7 3.3.8 3.4.8 3.3.8 3.3.8 3.4.9 3.3.9 3.3.9 3.3.9 3.2 1 3.3 1 3.3 1 3.3 1.1 3.2 1 3.3 1.1 3.2 1.2 3.2 1.1 3.3 1.2 3.2 1.2 3.2 1.2 3.2 1.3 3.2 1.3 3.2 1.3 3.1 1.4 3.2 1.4 3.1 1.4 3.1 1.5 3.2 1.5 3.1 1.5 3.1 1.6 3 1.5 3.1 1.7 3 1.6 3 1.7 3 1.8 3 1.8 3 1.8 2.9 1.8 2.9 1.9 2.9 1.9 2.9 2 2.8 2 2.8 2 2.8 2.1 2.8 2.1 2.7 2.2 2.7 2.2 2.7 2.2 2.6 2.3 2.6 2.3 2.6 2.3 2.6 2.4 2.5 2.4 2.4 2.5 2.5 2.5 2.4 2.5 2.3 2.5 2.4 2.6 2.3 2.6 2.2 2.7 2.2 2.7 2.2 2.7 2.2 2.7 2.1 2.8 2 2.8 2.1 2.8 2 2.9 1.9 2.8 1.9 2.9 1.9 3 1.8 2.9 1.8 3 1.8 3 1.7 3 1.7 3 1.7 3 1.6 3.1 1.6 3.1 1.5 3.1 1.5 3.1 1.5 3.1 1.5 3.1 1.4 3.2 1.4 3.1 1.3 3.2 1.3 3.2 1.3 3.2 1.3 3.2 1.2 3.2 1.2 3.2 1.2 3.2 1.1 3.3 1.1 3.2 1.1 3.3 1.1 3.2 1 3.3 1 3.3 1 3.2 1 3.3.9 3.3.9 3.3.9 3.3.9 3.4.8 3.3.8 3.3.8 3.4.7 3.3.7 3.4.7 3.3.7 3.4.7 3.3.6 3.4.6 3.4.5 3.4.5 3.4.5 3.4.5 3.4.4 3.4.4 3.5.4 3.4.3 3.4.3 3.5.3 3.4.2 3.5.2 3.4.1 3.5.2 3.4v3.5l.1 3.4v3.5l-.1 3.5-.1 3.5-.1 3.4-.2 3.5-.2 3.5-.3 3.4-.3 3.5-.4 3.4-.4 3.5-.5 3.4-.5 3.5-.5 3.4-.6 3.4-.7 3.5-.7 3.4-.7 3.4-.8 3.4-.9 3.3-.9 3.4-.9 3.4-1 3.3-1 3.3-1.1 3.3-1.1 3.3-1.2 3.3-1.2 3.3-1.3 3.2-1.3 3.2-1.3 3.2-1.4 3.2-1.5 3.2-1.4 3.1-1.6 3.2-1.5 3.1-1.6 3.1-1.7 3-1.6 3.1-1.7 3-1.8 3-1.8 2.9-1.8 3-1.8 2.9-1.9 2.9-1.9 2.9-1.9 2.9-2 2.8-2 2.8-2 2.8-2.1 2.8-2 2.7-2.1 2.8-2.1 2.7-2.2 2.7-2.2 2.6-2.1 2.7-2.3 2.6-2.2 2.6-2.2 2.6-2.3 2.6-2.3 2.5-2.3 2.6-2.4 2.5-2.3 2.5-2.4 2.4-2.4 2.5-2.4 2.4-2.4 2.4-2.5 2.4-2.4 2.4-2.5 2.4-2.5 2.3-2.5 2.3-2.6 2.3-2.5 2.3-2.6 2.3-2.6 2.2-2.7 2.2-2.6 2.2-2.7 2.2-2.6 2.2-2.7 2.1-2.8 2.1-2.7 2.1-2.8 2-2.8 2.1-2.8 2-2.8 1.9-2.9 2-2.8 1.9-2.9 1.9-3 1.8-2.9 1.9-3 1.7-3 1.8-3 1.7-3 1.7-3.1 1.7-3 1.6-3.1 1.5-3.1 1.6-3.2 1.5-3.1 1.4-3.2 1.4-3.2 1.4-3.2 1.3-3.3 1.3-3.2 1.2-3.3 1.2-3.3 1.1-3.3 1.1-3.3 1.1-3.3 1-3.4.9-3.4 1-3.3.8-3.4.8-3.4.8-3.4.7-3.4.7-3.5.6-3.4.5-3.4.6-3.5.4-3.4.5-3.5.3-3.5.4-3.4.3-3.5.2-3.5.2-3.4.2-3.5.1h-3.5l-3.4.1-3.5-.1H408l-3.4-.1-3.5-.1-3.4-.2-3.5-.2-3.4-.3-3.5-.3-3.4-.3-3.4-.3-3.5-.4-3.4-.5-3.4-.4-3.4-.5-3.4-.5-3.4-.6-3.4-.5-3.4-.6-3.3-.7-3.4-.6-3.4-.7-3.3-.7-3.4-.8-3.3-.8-3.3-.7-3.4-.9-3.3-.8-3.3-.9-3.3-.9-3.3-.9-3.3-1-3.3-.9-3.3-1-3.2-1.1-3.3-1-3.2-1.1-3.3-1.1-3.2-1.1-3.3-1.2-3.2-1.2-3.2-1.2-3.2-1.3-3.2-1.3-3.2-1.3-3.2-1.3-3.1-1.4-3.2-1.4-3.1-1.4-3.1-1.5-3.1-1.5-3.1-1.5-3.1-1.6-3.1-1.6-3-1.7-3.1-1.6-3-1.7-3-1.8-2.9-1.8-3-1.8-2.9-1.9-2.9-1.9-2.9-1.9-2.9-2-2.8-2-2.8-2.1-2.8-2-2.7-2.2-2.7-2.1-2.7-2.3-2.7-2.2-2.6-2.3-2.6-2.3-2.6-2.4-2.5-2.3-2.5-2.5-2.5-2.4-2.4-2.5-2.4-2.6-2.4-2.5-2.3-2.6-2.3-2.7-2.2-2.6-2.2-2.7-2.2-2.7-2.1-2.8-2.1-2.8-2-2.8-2.1-2.8-1.9-2.9-2-2.8-1.9-3-1.8-2.9-1.9-2.9-1.7-3-1.8-3-1.7-3-1.7-3-1.6-3.1-1.6-3.1" opacity=".48"/><path stroke="#b8863f" stroke-linecap="round" stroke-width="2.267" d="m150.8 256.8 1.4-2.8 1.4-2.7 1.5-2.8 1.5-2.7 1.6-2.7 1.6-2.7 1.6-2.6 1.7-2.7 1.7-2.6 1.8-2.5 1.8-2.6 1.8-2.5 1.9-2.5 1.9-2.4 2-2.5 2-2.3 2.1-2.4 2-2.3 2.1-2.3 2.2-2.3 2.2-2.2 2.2-2.2 2.2-2.2 2.3-2.1 2.3-2.1 2.4-2 2.3-2 2.4-2 2.5-2 2.4-1.9 2.5-1.9 2.5-1.8 2.5-1.9 2.5-1.8 2.5-1.7 2.6-1.7 2.6-1.8 2.6-1.6 2.6-1.7 2.6-1.6 2.6-1.6 2.7-1.6 2.6-1.6 2.7-1.5 2.7-1.5 2.6-1.5 2.7-1.5 2.7-1.4 2.7-1.5 2.7-1.4 2.8-1.4 2.7-1.4 2.7-1.4 2.8-1.3 2.7-1.4 2.8-1.3 2.7-1.3 2.8-1.3 2.8-1.3 2.7-1.3 2.8-1.2 2.8-1.2 2.8-1.3 2.9-1.2 2.8-1.2 2.8-1.1 2.9-1.2 2.8-1.1 2.9-1.1 2.9-1.1 2.9-1.1 2.9-1 2.9-1 2.9-1 3-1 2.9-.9 3-.9 3-.8 2.9-.9 3-.8 3.1-.7 3-.8 3-.6 3-.7 3.1-.6 3.1-.5 3-.6 3.1-.4 3.1-.4 3.1-.4 3.1-.4 3.1-.2 3.1-.3 3.1-.1 3.1-.2 3.2-.1h6.2l3.1.1 3.1.1 3.1.2 3.2.2 3.1.2 3.1.4 3.1.3 3.1.4 3 .5 3.1.5 3.1.5 3 .6 3.1.6 3 .7 3 .7 3 .8 3.1.8 2.9.8 3 .8 3 .9 2.9.9 3 1 2.9 1 2.9 1 2.9 1 2.9 1 2.9 1.1 2.9 1.1 2.9 1.1 2.8 1.2 2.9 1.2 2.8 1.1 2.8 1.2 2.8 1.2 2.8 1.3 2.8 1.2 2.8 1.3 2.8 1.3 2.8 1.3 2.7 1.3 2.8 1.3 2.7 1.3 2.8 1.4 2.7 1.4 2.7 1.3 2.7 1.4 2.8 1.5 2.7 1.4 2.7 1.4 2.7 1.5 2.6 1.5 2.7 1.5 2.7 1.5 2.6 1.6 2.7 1.5 2.6 1.6 2.6 1.7 2.7 1.6 2.6 1.7 2.5 1.7 2.6 1.7 2.6 1.8 2.5 1.7 2.5 1.9 2.5 1.8 2.5 1.9 2.4 1.9 2.5 1.9 2.4 2 2.3 2 2.4 2 2.3 2.1 2.3 2.1 2.3 2.2 2.2 2.2 2.2 2.2 2.1 2.2 2.2 2.3 2.1 2.3 2 2.4 2 2.3 2 2.5 1.9 2.4 1.9 2.5 1.9 2.5 1.8 2.5 1.8 2.6 1.7 2.6 1.7 2.6 1.7 2.6 1.6 2.7 1.5 2.7 1.6 2.7 1.5 2.7 1.4 2.8 1.4 2.8 1.4 2.7 1.3 2.9 1.3 2.8 1.3 2.8 1.2 2.9 1.2 2.8 1.2 2.9 1.1 2.9 1.1 2.9 1.1 2.9 1 2.9 1 2.9 1 2.9 1 2.9.9 3 .9 2.9.9 2.9.9 3 .8 2.9.8 3 .8 2.9.8 3 .8 3 .8 2.9.7 3 .7 3 .7 2.9.7 3 .7 3 .6 3 .7 3 .6 3 .6 3 .6 3 .5 3 .6 3 .5 3 .5 3.1.5 3 .5 3 .4 3.1.5 3 .4 3.1.3 3 .4 3.1.3 3.1.3 3 .3 3.1.2 3.1.2 3.1.1 3.1.1 3.1.1 3.1.1 3.1v3.1l-.1 3.1-.1 3.1-.1 3.1-.2 3.2-.2 3.1-.2 3.1-.3 3.1-.4 3.1-.4 3.1-.5 3-.5 3.1-.5 3.1-.6 3.1-.7 3-.7 3-.7 3.1-.8 3-.8 3-.9 3-1 3-1 2.9-1 3-1.1 2.9-1.1 2.9-1.1 2.9-1.2 2.9-1.3 2.8-1.3 2.8-1.3 2.9-1.3 2.8-1.4 2.7-1.4 2.8-1.5 2.7-1.5 2.7-1.5 2.7-1.6 2.7-1.5 2.7-1.6 2.6-1.6 2.7-1.7 2.6-1.7 2.6-1.7 2.5-1.7 2.6-1.7 2.5-1.7 2.6-1.8 2.5-1.8 2.5-1.8 2.5-1.8 2.5-1.8 2.4-1.8 2.5-1.9 2.4-1.8 2.4-1.9 2.4-1.9 2.5-1.9 2.3-1.9 2.4-1.9 2.4-2 2.4-1.9 2.3-2 2.4-2 2.3-2 2.3-2 2.3-2 2.3-2 2.3-2.1 2.3-2.1 2.3-2.1 2.2-2.1 2.2-2.1 2.3-2.2 2.2-2.2 2.2-2.2 2.1-2.2 2.2-2.2 2.1-2.3 2.1-2.3 2.1-2.3 2-2.4 2.1-2.4 2-2.3 1.9-2.5 2-2.4 1.9-2.5 1.9-2.5 1.8-2.5 1.8-2.6 1.8-2.6 1.7-2.6 1.7-2.6 1.7-2.7 1.6-2.7 1.6-2.7 1.5-2.8 1.5-2.7 1.4-2.8 1.4-2.8 1.4-2.9 1.3-2.8 1.3-2.9 1.2-2.9 1.2-2.9 1.1-2.9 1.1-2.9 1-3 1-3 .9-2.9.9-3 .9-3 .8-3.1.8-3 .7-3 .7-3 .6-3.1.7-3 .5-3.1.6-3 .5-3.1.4-3.1.5-3 .4-3.1.4-3.1.3-3 .3-3.1.3-3.1.3-3 .2-3.1.2-3.1.2-3 .2-3.1.1-3.1.2-3 .1-3.1.1-3 .1h-3.1l-3 .1h-12.3l-3-.1h-3.1l-3-.1-3.1-.1-3.1-.1-3-.1-3.1-.2-3.1-.1-3-.2-3.1-.2-3-.3-3.1-.2-3.1-.3-3-.3-3.1-.4-3.1-.3-3-.4-3.1-.5-3.1-.4-3-.5-3.1-.5-3-.6-3.1-.6-3-.7-3-.6-3.1-.8-3-.7-3-.8-3-.9-3-.9-2.9-.9-3-1-2.9-1-3-1.1-2.9-1.1-2.9-1.1-2.9-1.3-2.8-1.2-2.8-1.3-2.9-1.4-2.8-1.3-2.7-1.5-2.8-1.5-2.7-1.5-2.7-1.5-2.7-1.7-2.6-1.6-2.6-1.7-2.6-1.7-2.6-1.8-2.5-1.8-2.5-1.8-2.5-1.9-2.5-1.9-2.4-1.9-2.4-2-2.4-2-2.3-2-2.4-2.1-2.3-2-2.3-2.1-2.2-2.2-2.2-2.1-2.2-2.2-2.2-2.1-2.2-2.2-2.1-2.3-2.1-2.2-2.1-2.2-2.1-2.3-2.1-2.3-2-2.3-2.1-2.2-2-2.4-2-2.3-2-2.3-1.9-2.4-2-2.3-1.9-2.4-2-2.3-1.9-2.4-1.9-2.4-1.9-2.4-1.9-2.4-1.8-2.5-1.9-2.4-1.8-2.4-1.8-2.5-1.8-2.5-1.8-2.5-1.8-2.5-1.8-2.5-1.7-2.5-1.8-2.5-1.7-2.6-1.7-2.6-1.6-2.5-1.7-2.7-1.6-2.6-1.6-2.6-1.6-2.7-1.5-2.7-1.6-2.7-1.5-2.7-1.4-2.7-1.5-2.8-1.4-2.7-1.3-2.8-1.3-2.8-1.3-2.9-1.3-2.8-1.2-2.9-1.2-2.9-1.1-2.9-1.1-2.9-1-2.9-1-3-1-3-.9-2.9-.8-3-.8-3.1-.8-3-.7-3-.7-3.1-.6-3-.5-3.1-.5-3.1-.5-3.1-.4-3-.4-3.1" opacity=".46"/><path stroke="#5c6570" stroke-linecap="round" stroke-width="2.267" d="m171 526.4-1.2-2.6-1.2-2.7-1.1-2.7-1.1-2.7-1-2.7-1-2.7-1-2.7-.9-2.8-.9-2.7-.8-2.8-.9-2.8-.7-2.8-.8-2.7-.7-2.8-.8-2.8-.6-2.8-.7-2.8-.7-2.8-.6-2.7-.6-2.8-.6-2.8-.6-2.8-.6-2.8-.6-2.8-.6-2.7-.6-2.8-.5-2.8-.6-2.8-.5-2.8-.6-2.8-.5-2.8-.5-2.7-.6-2.8-.5-2.8-.5-2.8-.5-2.9-.5-2.8-.4-2.8-.5-2.8-.4-2.9-.4-2.8-.4-2.8-.4-2.9-.4-2.9-.3-2.8-.3-2.9-.2-2.9-.2-2.9-.2-2.9-.1-2.9-.1-2.9-.1-2.9v-5.8l.1-2.9.2-2.9.2-2.9.2-2.9.3-2.9.4-2.9.4-2.8.5-2.9.5-2.9.6-2.8.6-2.9.7-2.8.8-2.8.8-2.8.9-2.8.9-2.7 1-2.8 1-2.7 1-2.7 1.1-2.7 1.2-2.7 1.2-2.6 1.2-2.6 1.3-2.7 1.3-2.5 1.3-2.6 1.4-2.6 1.3-2.5 1.5-2.5 1.4-2.5 1.4-2.5 1.5-2.5 1.5-2.4 1.5-2.5 1.5-2.4 1.5-2.4 1.5-2.4 1.6-2.4 1.5-2.4 1.6-2.4 1.5-2.4 1.6-2.3 1.6-2.4 1.5-2.4 1.6-2.3 1.6-2.4 1.6-2.3 1.6-2.4 1.6-2.3 1.6-2.4 1.6-2.3 1.6-2.4 1.7-2.3 1.6-2.3 1.7-2.4 1.7-2.3 1.7-2.3 1.7-2.3 1.7-2.3 1.8-2.3 1.8-2.2 1.8-2.3 1.8-2.2 1.9-2.2 1.9-2.2 1.9-2.2 2-2.1 2-2.1 2-2.1 2-2.1 2.1-2 2.2-2 2.1-1.9 2.2-1.9 2.3-1.9 2.2-1.8 2.3-1.8 2.4-1.7 2.4-1.7 2.4-1.6 2.4-1.6 2.5-1.6 2.5-1.4 2.5-1.5 2.6-1.4 2.5-1.3 2.6-1.3 2.7-1.3 2.6-1.2 2.7-1.1 2.7-1.1 2.7-1.1 2.7-1 2.7-1 2.8-.9 2.7-.9 2.8-.9 2.7-.8 2.8-.8 2.8-.8 2.8-.8 2.8-.7 2.7-.7 2.8-.7 2.8-.6 2.8-.7 2.8-.6 2.8-.6 2.7-.6 2.8-.6 2.8-.6 2.8-.6 2.8-.6 2.8-.5 2.7-.6 2.8-.5 2.8-.6 2.8-.5 2.8-.6 2.8-.5 2.8-.5 2.8-.5 2.8-.5 2.8-.5 2.8-.5 2.9-.4 2.8-.5 2.8-.4 2.9-.4 2.8-.4 2.9-.4 2.8-.3 2.9-.3 2.9-.3 2.9-.2 2.9-.2 2.9-.2 2.9-.1 2.9-.1h5.8l2.9.1 2.9.1 2.9.2 2.9.2 2.9.3 2.9.3 2.9.4 2.8.4 2.9.5 2.9.6 2.8.6 2.8.7 2.9.7 2.8.8 2.7.8 2.8.9 2.8 1 2.7.9 2.7 1.1 2.7 1.1 2.7 1.1 2.6 1.2 2.7 1.2 2.6 1.2 2.6 1.3 2.6 1.3 2.5 1.4 2.6 1.3 2.5 1.4 2.5 1.4 2.5 1.5 2.5 1.4 2.5 1.5 2.4 1.5 2.4 1.5 2.5 1.5 2.4 1.6 2.4 1.5 2.4 1.5 2.4 1.6 2.3 1.5 2.4 1.6 2.4 1.6 2.4 1.5 2.3 1.6 2.4 1.6 2.3 1.6 2.4 1.6 2.3 1.6 2.4 1.6 2.3 1.6 2.4 1.6 2.3 1.6 2.3 1.7 2.4 1.6 2.3 1.7 2.3 1.7 2.3 1.7 2.3 1.7 2.3 1.8 2.3 1.8 2.2 1.7 2.3 1.9 2.2 1.8 2.2 1.9 2.2 1.9 2.1 2 2.1 1.9 2.1 2 2.1 2.1 2.1 2 2 2.2 1.9 2.1 1.9 2.2 1.9 2.2 1.9 2.3 1.8 2.2 1.7 2.4 1.7 2.3 1.7 2.4 1.6 2.4 1.6 2.5 1.5 2.5 1.4 2.5 1.5 2.5 1.3 2.6 1.3 2.6 1.3 2.6 1.2 2.6 1.2 2.7 1.1 2.7 1.1 2.7 1.1 2.7 1 2.7.9 2.7 1 2.8.8 2.7.9 2.8.8 2.8.8 2.8.8 2.7.7 2.8.7 2.8.7 2.8.7 2.8.6 2.8.7 2.7.6 2.8.6 2.8.6 2.8.6 2.8.6 2.8.6 2.7.5 2.8.6 2.8.6 2.8.5 2.8.5 2.8.6 2.8.5 2.7.5 2.8.6 2.8.5 2.8.5 2.9.4 2.8.5 2.8.5 2.8.4 2.8.4 2.9.4 2.8.4 2.9.3 2.9.4 2.8.2 2.9.3 2.9.2 2.9.2 2.9.1 2.9.1 2.9.1 2.9v5.8l-.1 2.9-.2 2.9-.2 2.9-.2 2.9-.3 2.9-.4 2.9-.4 2.8-.5 2.9-.5 2.9-.6 2.8-.6 2.9-.7 2.8-.8 2.8-.8 2.8-.8 2.8-1 2.7-.9 2.8-1 2.7-1.1 2.7-1.1 2.7-1.1 2.7-1.2 2.6-1.3 2.7-1.2 2.6-1.3 2.6-1.4 2.5-1.3 2.6-1.4 2.5-1.4 2.5-1.4 2.5-1.5 2.5-1.4 2.5-1.5 2.4-1.5 2.5-1.5 2.4-1.6 2.4-1.5 2.4-1.5 2.4-1.6 2.4-1.5 2.4-1.6 2.4-1.5 2.4-1.6 2.3-1.6 2.4-1.6 2.4-1.5 2.3-1.6 2.4-1.6 2.3-1.6 2.4-1.6 2.3-1.7 2.4-1.6 2.3-1.6 2.3-1.7 2.4-1.6 2.3-1.7 2.3-1.7 2.3-1.7 2.3-1.8 2.3-1.7 2.3-1.8 2.3-1.8 2.2-1.9 2.2-1.8 2.3-1.9 2.1-1.9 2.2-2 2.2-2 2.1-2 2-2.1 2.1-2.1 2-2.1 2-2.1 1.9-2.2 2-2.3 1.8-2.3 1.8-2.3 1.8-2.3 1.7-2.4 1.7-2.4 1.7-2.4 1.6-2.5 1.5-2.5 1.5-2.5 1.4-2.6 1.4-2.5 1.4-2.7 1.3-2.6 1.2-2.6 1.2-2.7 1.2-2.7 1.1-2.7 1-2.7 1.1-2.7.9-2.8 1-2.7.9-2.8.9-2.7.8-2.8.8-2.8.8-2.8.7-2.8.8-2.7.7-2.8.6-2.8.7-2.8.7-2.8.6-2.8.6-2.7.6-2.8.6-2.8.6-2.8.6-2.8.5-2.8.6-2.7.6-2.8.5-2.8.6-2.8.5-2.8.5-2.8.6-2.8.5-2.8.5-2.8.5-2.8.5-2.8.5-2.9.4-2.8.5-2.8.4-2.9.4-2.8.4-2.9.4-2.8.3-2.9.3-2.9.3-2.9.2-2.9.2-2.9.2-2.9.1-2.9.1h-5.8l-2.9-.1-2.9-.1-2.9-.2-2.9-.2-2.9-.3-2.9-.3-2.9-.4-2.8-.4-2.9-.5-2.9-.6-2.8-.6-2.8-.7-2.9-.7-2.8-.8-2.7-.8-2.8-.9-2.8-.9-2.7-1-2.7-1-2.7-1.1-2.7-1.2-2.7-1.1-2.6-1.2-2.6-1.3-2.6-1.2-2.6-1.4-2.6-1.3-2.5-1.4-2.5-1.4-2.5-1.4-2.5-1.4-2.5-1.5-2.5-1.5-2.4-1.5-2.4-1.5-2.5-1.5-2.4-1.5-2.4-1.5-2.4-1.6-2.4-1.5-2.4-1.6-2.3-1.5" opacity=".44"/><path stroke="#b8863f" stroke-linecap="round" stroke-width="2.267" d="m333.5 618.9-2.4-.9-2.4-.9-2.3-.8-2.4-.9-2.4-.9-2.4-.8-2.3-.9-2.4-.8-2.4-.9-2.4-.8-2.4-.9-2.4-.8-2.4-.8-2.4-.9-2.4-.8-2.5-.9-2.4-.9-2.4-.9-2.4-.9-2.4-.9-2.4-1-2.4-1-2.4-1-2.4-1.1-2.3-1.1-2.4-1.2-2.3-1.1-2.3-1.3-2.2-1.2-2.3-1.4-2.2-1.3-2.2-1.5-2.1-1.4-2.1-1.6-2.1-1.6-2-1.6-2-1.7-2-1.7-1.9-1.8-1.9-1.8-1.8-1.8-1.8-1.9-1.7-2-1.7-2-1.6-2-1.6-2-1.6-2.1-1.5-2.1-1.5-2.2-1.5-2.1-1.4-2.2-1.4-2.2-1.4-2.2-1.3-2.2-1.3-2.2-1.3-2.2-1.3-2.3-1.3-2.2-1.3-2.2-1.2-2.2-1.3-2.3-1.2-2.2-1.2-2.2-1.3-2.2-1.2-2.2-1.3-2.2-1.2-2.2-1.3-2.2-1.3-2.2-1.2-2.2-1.3-2.1-1.3-2.2-1.3-2.2-1.3-2.2-1.3-2.2-1.3-2.2-1.3-2.2-1.3-2.2-1.3-2.2-1.3-2.2-1.2-2.2-1.3-2.3-1.2-2.3-1.3-2.2-1.2-2.3-1.1-2.4-1.2-2.3-1.1-2.4-1-2.3-1-2.4-1-2.4-.9-2.5-.9-2.4-.8-2.5-.8-2.5-.7-2.5-.7-2.5-.5-2.6-.6-2.5-.4-2.6-.4-2.6-.3-2.6-.3-2.6-.2-2.6-.1-2.6-.1-2.6-.1-2.6.1-2.6.1-2.6.1-2.6.2-2.6.2-2.6.2-2.6.3-2.5.4-2.6.3-2.6.4-2.5.4-2.6.5-2.5.4-2.6.5-2.5.4-2.5.5-2.5.5-2.5.5-2.5.4-2.5.5-2.5.5-2.5.4-2.5.5-2.5.4-2.4.4-2.5.5-2.5.4-2.5.4-2.5.4-2.5.4-2.5.4-2.5.5-2.5.4-2.6.4-2.5.4-2.5.5-2.5.4-2.6.5-2.5.5-2.5.5-2.6.6-2.5.6-2.5.6-2.6.7-2.5.7-2.5.8-2.5.8-2.5.8-2.4.9-2.5 1-2.4 1-2.4 1-2.4 1.2-2.3 1.1-2.3 1.3-2.3 1.3-2.3 1.3-2.2 1.4-2.2 1.5-2.2 1.5-2.1 1.5-2.1 1.6-2.1 1.7-2 1.7-2 1.7-1.9 1.8-1.9 1.8-1.9 1.8-1.8 1.9-1.9 1.9-1.8 1.9-1.7 1.9-1.7 1.9-1.8 2-1.6 2-1.7 1.9-1.7 2-1.6 2-1.6 1.9-1.7 2-1.6 2-1.6 2-1.6 1.9-1.6 2-1.6 1.9-1.6 2-1.6 1.9-1.7 1.9-1.6 2-1.6 1.9-1.7 1.9-1.6 1.9-1.6 2-1.7 1.9-1.7 1.9-1.6 2-1.7 1.9-1.7 2-1.6 1.9-1.7 2-1.6 2-1.6 2-1.7 2-1.6 2.1-1.6 2.1-1.5 2.1-1.5 2.1-1.5 2.1-1.5 2.2-1.4 2.2-1.4 2.3-1.4 2.2-1.3 2.3-1.2 2.3-1.2 2.4-1.2 2.3-1.1 2.4-1 2.4-1 2.5-.9 2.4-.8 2.5-.8 2.5-.7 2.6-.7 2.5-.6 2.5-.5 2.6-.5 2.6-.5 2.5-.4 2.6-.3 2.6-.3 2.6-.2 2.6-.2 2.6-.2 2.6-.1 2.6-.1 2.6-.1h17.9l2.6.1h5l2.6.1h17.7l2.5-.1h5.1l2.5-.1h18l2.6.1 2.6.1 2.6.1 2.6.2 2.6.2 2.6.3 2.5.3 2.6.3 2.6.4 2.6.5 2.5.5 2.6.6 2.5.6 2.5.7 2.5.7 2.5.8 2.4.9 2.5.9 2.4 1 2.4 1 2.3 1.1 2.4 1.2 2.3 1.2 2.3 1.3 2.2 1.3 2.2 1.3 2.2 1.4 2.2 1.5 2.2 1.4 2.1 1.5 2.1 1.6 2 1.6 2.1 1.5 2 1.7 2 1.6 2 1.6 2 1.7 2 1.6 1.9 1.7 1.9 1.6 2 1.7 1.9 1.7 1.9 1.6 2 1.7 1.9 1.6 1.9 1.7 1.9 1.6 2 1.6 1.9 1.7 1.9 1.6 2 1.6 1.9 1.6 2 1.6 2 1.6 1.9 1.6 2 1.6 2 1.7 1.9 1.6 2 1.6 2 1.7 2 1.6 1.9 1.7 2 1.7 1.9 1.7 1.9 1.7 1.9 1.8 1.9 1.8 1.9 1.8 1.8 1.9 1.8 1.9 1.7 1.9 1.8 1.9 1.6 2 1.7 2.1 1.6 2 1.5 2.1 1.5 2.2 1.4 2.1 1.4 2.2 1.4 2.3 1.2 2.3 1.3 2.3 1.1 2.3 1.1 2.3 1.1 2.4 1 2.4.9 2.5.9 2.4.9 2.5.7 2.5.8 2.5.7 2.5.6 2.5.7 2.5.5 2.5.6 2.6.5 2.5.5 2.5.5 2.6.4 2.5.5 2.5.4 2.6.4 2.5.4 2.5.5 2.5.4 2.5.4 2.5.4 2.5.4 2.5.4 2.5.5 2.5.4 2.5.4 2.5.5 2.5.5 2.5.4 2.5.5 2.4.5 2.5.4 2.5.5 2.5.5 2.6.4 2.5.5 2.5.4 2.5.5 2.6.4 2.5.4 2.6.3 2.6.3 2.5.3 2.6.3 2.6.2 2.6.2 2.6.1 2.6v2.6l.1 2.6-.1 2.6-.1 2.6-.1 2.6-.3 2.6-.2 2.6-.4 2.6-.4 2.6-.5 2.5-.5 2.6-.6 2.5-.7 2.5-.7 2.5-.8 2.5-.8 2.5-.9 2.4-.9 2.5-1 2.4-1 2.4-1.1 2.4-1.1 2.3-1.2 2.3-1.1 2.4-1.2 2.3-1.3 2.2-1.2 2.3-1.3 2.2-1.3 2.3-1.2 2.2-1.3 2.2-1.3 2.2-1.3 2.2-1.3 2.2-1.3 2.2-1.3 2.2-1.3 2.1-1.3 2.2-1.3 2.2-1.3 2.2-1.2 2.2-1.3 2.2-1.2 2.2-1.3 2.2-1.2 2.2-1.3 2.2-1.2 2.2-1.3 2.2-1.2 2.2-1.3 2.3-1.2 2.2-1.3 2.2-1.3 2.2-1.3 2.3-1.3 2.2-1.4 2.2-1.3 2.2-1.4 2.2-1.5 2.1-1.4 2.2-1.5 2.1-1.6 2.1-1.6 2.1-1.6 2-1.6 2-1.7 2-1.8 1.9-1.8 1.9-1.8 1.9-1.9 1.8-1.9 1.8-2 1.7-2 1.6-2 1.7-2.1 1.5-2.1 1.5-2.2 1.5-2.2 1.4-2.2 1.4-2.2 1.3-2.3 1.3-2.3 1.2-2.4 1.1-2.3 1.2-2.4 1.1-2.3 1-2.4 1.1-2.4.9-2.4 1-2.4.9-2.4 1-2.5.8-2.4.9-2.4.9-2.4.8-2.4.9-2.4.8-2.4.9-2.4.8-2.4.8-2.4.9-2.4.8-2.3.9-2.4.8-2.4.9-2.4.9-2.3.9-2.4.9-2.4.9-2.4.9-2.3.9-2.4.9-2.4.9-2.4.9" opacity=".42"/><path stroke="#b8863f" stroke-linecap="round" stroke-width="2.267" d="m563.1 276.9 1.6 1.5 1.6 1.5 1.6 1.6 1.6 1.5 1.6 1.6 1.5 1.6 1.5 1.7 1.5 1.7 1.4 1.7 1.4 1.7 1.4 1.8 1.3 1.8 1.2 1.9 1.2 1.9 1.1 1.9 1.1 1.9 1 2 1 2 .8 2.1.9 2 .7 2.1.7 2.1.7 2.2.6 2.1.5 2.2.5 2.2.4 2.2.4 2.2.4 2.2.3 2.2.3 2.2.3 2.2.2 2.2.3 2.2.2 2.2.2 2.2.2 2.1.2 2.2.2 2.2.2 2.1.3 2.2.2 2.1.3 2.2.3 2.1.3 2.1.3 2.1.3 2.1.4 2.1.4 2.1.4 2.2.4 2.1.5 2.1.4 2.1.5 2.1.5 2.2.4 2.1.5 2.1.5 2.2.4 2.2.5 2.1.4 2.2.4 2.2.4 2.2.3 2.2.3 2.2.3 2.2.2 2.3.1 2.2.1 2.2.1 2.2v2.3l-.1 2.2-.2 2.2-.2 2.2-.3 2.2-.3 2.2-.4 2.2-.5 2.2-.6 2.2-.6 2.1-.7 2.1-.7 2.1-.8 2.1-.8 2.1-.9 2-.9 2.1-1 2-1 2-1 1.9-1.1 2-1.1 1.9-1.1 2-1.1 1.9-1.1 1.9-1.1 1.9-1.1 1.9-1.1 1.8-1.1 1.9-1.1 1.9-1.1 1.9-1 1.9-1.1 1.8-1 1.9-1 1.9-1 1.9-.9 1.9-1 2-.9 1.9-.9 1.9-.9 2-.9 2-.9 1.9-.9 2-.8 2-.9 2-.9 2.1-.9 2-.9 2-.9 2-.9 2-1 2-1 2-1 2-1 2-1.1 1.9-1.2 2-1.2 1.8-1.2 1.9-1.3 1.8-1.3 1.8-1.4 1.8-1.4 1.7-1.5 1.7-1.5 1.6-1.6 1.6-1.6 1.5-1.7 1.5-1.7 1.4-1.7 1.3-1.8 1.4-1.8 1.2-1.9 1.3-1.9 1.2-1.9 1.1-2 1.1-1.9 1-2 1.1-2 1-2 .9-2 1-2.1.9-2 .9-2 .9-2 .8-2 .9-2 .9-2 .8-2 .9-2 .9-1.9.9-2 .9-1.9.9-1.9 1-1.9.9-1.9 1-1.9 1-1.9 1.1-1.9 1-1.9 1.1-1.9 1-1.8 1.1-1.9 1.1-1.9 1.1-1.9 1.1-1.9 1.2-1.9 1.1-1.9 1.1-1.9 1.1-2 1-1.9 1.1-2 1-2 1-2 1-2 .9-2.1.9-2 .9-2.1.7-2.1.8-2.2.6-2.1.7-2.2.5-2.1.5-2.2.4-2.2.3-2.2.3-2.2.2-2.3.2-2.2.1h-2.2l-2.3-.1-2.2-.1-2.2-.1-2.2-.2-2.3-.3-2.2-.3-2.2-.3-2.2-.4-2.2-.4-2.1-.4-2.2-.5-2.2-.4-2.1-.5-2.2-.5-2.1-.5-2.1-.4-2.2-.5-2.1-.4-2.1-.5-2.1-.4-2.1-.4-2.1-.4-2.1-.4-2.2-.3-2.1-.3-2.1-.4-2.1-.2-2.1-.3-2.2-.2-2.1-.3-2.2-.2-2.2-.2-2.1-.2-2.2-.2-2.2-.2-2.2-.3-2.2-.2-2.2-.2-2.2-.3-2.2-.3-2.2-.3-2.2-.4-2.2-.4-2.2-.4-2.2-.5-2.1-.6-2.2-.5-2.1-.7-2.1-.7-2.1-.8-2.1-.8-2-.9-2.1-.9-1.9-1-2-1.1-1.9-1.1-1.9-1.2-1.8-1.3-1.9-1.3-1.7-1.3-1.8-1.4-1.7-1.4-1.7-1.5-1.6-1.5-1.6-1.6-1.6-1.5-1.6-1.6-1.5-1.6-1.5-1.7-1.5-1.6-1.5-1.6-1.5-1.7-1.4-1.6-1.5-1.7-1.4-1.6-1.5-1.6-1.4-1.6-1.4-1.6-1.5-1.6-1.5-1.6-1.5-1.6-1.4-1.5-1.5-1.5-1.6-1.5-1.5-1.5-1.6-1.5-1.5-1.5-1.6-1.4-1.6-1.5-1.6-1.4-1.7-1.5-1.6-1.4-1.6-1.5-1.7-1.4-1.6-1.5-1.7-1.5-1.6-1.5-1.6-1.5-1.6-1.5-1.6-1.6-1.6-1.5-1.6-1.7-1.5-1.6-1.4-1.7-1.5-1.7-1.4-1.7-1.3-1.8-1.3-1.8-1.3-1.9-1.1-1.9-1.2-1.9-1-1.9-1.1-2-.9-2-.9-2.1-.8-2-.8-2.1-.7-2.1-.6-2.2-.6-2.1-.6-2.2-.5-2.2-.4-2.1-.4-2.2-.4-2.2-.3-2.3-.3-2.2-.3-2.2-.2-2.2-.2-2.2-.3-2.2-.2-2.1-.2-2.2-.2-2.2-.2-2.2-.2-2.1-.2-2.2-.3-2.1-.3-2.1-.2-2.2-.3-2.1-.4-2.1-.3-2.1-.4-2.1-.4-2.1-.4-2.1-.4-2.2-.4-2.1-.5-2.1-.5-2.1-.4-2.1-.5-2.2-.5-2.1-.5-2.2-.4-2.1-.5-2.2-.4-2.2-.4-2.2-.4-2.2-.3-2.2-.3-2.2-.3-2.2-.2-2.2-.1-2.3-.1-2.2-.1-2.2v-2.3l.1-2.2.2-2.2.2-2.2.2-2.2.4-2.2.4-2.2.5-2.2.5-2.1.6-2.2.7-2.1.7-2.1.8-2.1.9-2.1.8-2 1-2.1.9-2 1-2 1.1-1.9 1-2 1.1-1.9 1.1-2 1.1-1.9 1.1-1.9 1.1-1.9 1.2-1.9 1.1-1.9 1.1-1.8 1.1-1.9 1-1.9 1.1-1.9 1-1.8 1-1.9 1-1.9 1-1.9 1-1.9.9-1.9 1-2 .9-1.9.9-2 .9-2 .8-1.9.9-2 .9-2 .8-2 .9-2.1.9-2 .9-2 .9-2 1-2 .9-2 1-2 1-2 1.1-2 1.1-1.9 1.1-2 1.2-1.8 1.2-1.9 1.3-1.8 1.3-1.8 1.4-1.8 1.4-1.7 1.5-1.7 1.5-1.6 1.6-1.6 1.6-1.5 1.7-1.5 1.7-1.4 1.7-1.4 1.8-1.3 1.8-1.3 1.9-1.2 1.9-1.2 1.9-1.1 2-1.1 1.9-1.1 2-1 2-1 2-1 2-.9 2.1-.9 2-.9 2-.9 2-.9 2-.9 2-.8 2-.9 2-.9 2-.9 1.9-.9 2-.9 1.9-.9 1.9-.9 1.9-1 1.9-1 1.9-1 1.9-1 1.9-1 1.9-1.1 1.9-1.1 1.8-1.1 1.9-1.1 1.9-1.1 1.9-1.1 1.9-1.1 1.9-1.1 1.9-1.1 1.9-1.1 2-1.1 1.9-1 2-1.1 2-1 2-1 2-.9 2.1-.9 2-.8 2.1-.8 2.1-.7 2.2-.7 2.1-.6 2.2-.6 2.1-.5 2.2-.4 2.2-.3 2.2-.3 2.2-.2 2.3-.2 2.2-.1h2.2l2.2.1 2.3.1 2.2.1 2.2.2 2.2.3 2.3.3 2.2.3 2.2.4 2.1.4 2.2.4 2.2.4 2.2.5 2.1.5 2.2.4 2.1.5 2.1.5 2.2.5 2.1.4 2.1.5 2.1.4 2.1.4 2.1.4 2.1.4 2.1.3 2.2.3 2.1.3" opacity=".4"/><path stroke="#5c6570" stroke-linecap="round" stroke-width="2.267" d="m342.2 572.5-1.8-.9-1.8-.9-1.7-1-1.7-1-1.7-1.1-1.6-1.2-1.6-1.2-1.6-1.2-1.6-1.2-1.5-1.3-1.6-1.3-1.5-1.3-1.5-1.2-1.5-1.3-1.5-1.3-1.5-1.2-1.5-1.3-1.5-1.2-1.5-1.1-1.5-1.2-1.5-1.1-1.6-1-1.6-1.1-1.6-.9-1.6-1-1.7-.9-1.6-1-1.7-.8-1.8-.9-1.7-.8-1.7-.9-1.8-.8-1.8-.8-1.8-.9-1.8-.8-1.8-.9-1.8-.9-1.8-.9-1.7-1-1.8-.9-1.7-1.1-1.7-1.1-1.6-1.1-1.6-1.2-1.6-1.2-1.5-1.3-1.5-1.4-1.4-1.4-1.3-1.4-1.3-1.5-1.2-1.6-1.1-1.6-1.1-1.7-1-1.7-1-1.7-.9-1.8-.8-1.8-.8-1.9-.8-1.8-.7-1.9-.6-1.9-.7-1.9-.6-1.9-.6-1.9-.5-1.9-.6-1.9-.6-1.9-.6-1.9-.5-1.8-.6-1.8-.7-1.8-.6-1.8-.7-1.8-.7-1.8-.8-1.7-.7-1.7-.9-1.7-.8-1.7-.9-1.7-1-1.6-.9-1.7-1-1.6-1-1.7-1.1-1.6-1-1.7-1.1-1.7-1-1.7-1.1-1.6-1-1.8-1-1.7-1-1.7-1-1.8-.9-1.8-.9-1.8-.8-1.8-.7-1.9-.7-1.8-.6-1.9-.6-1.9-.4-2-.4-1.9-.3-2-.2-1.9-.2-2v-4l.1-2 .2-1.9.2-2 .3-2 .3-2 .4-2 .5-1.9.4-2 .6-1.9.5-1.9.5-1.9.6-1.9.5-1.9.5-1.9.5-1.9.5-1.9.5-1.8.5-1.9.4-1.8.3-1.9.4-1.9.3-1.8.2-1.9.2-1.9.2-1.9.1-1.9.1-1.9.1-1.9.1-1.9v-7.9l.1-1.9v-2l.1-2v-2l.2-2 .1-2 .3-2 .2-2 .4-2 .3-2 .5-1.9.5-1.9.6-1.9.7-1.9.8-1.8.8-1.8.9-1.7 1-1.8 1.1-1.6 1.1-1.7 1.2-1.6 1.2-1.6 1.3-1.5 1.3-1.5 1.4-1.4 1.4-1.5 1.4-1.4 1.5-1.3 1.5-1.4 1.5-1.3 1.5-1.3 1.4-1.3 1.5-1.3 1.5-1.3 1.4-1.3 1.4-1.3 1.4-1.4 1.4-1.3 1.3-1.3 1.3-1.4 1.3-1.4 1.2-1.4 1.2-1.5 1.2-1.5 1.2-1.5 1.1-1.5 1.1-1.5 1.1-1.6 1.1-1.6 1.1-1.7 1.1-1.6 1-1.7 1.1-1.6 1.1-1.7 1.1-1.6 1.2-1.7 1.2-1.6 1.2-1.6 1.2-1.6 1.3-1.5 1.3-1.5 1.3-1.5 1.4-1.4 1.5-1.4 1.5-1.3 1.6-1.2 1.5-1.2 1.7-1.1 1.7-1 1.7-1 1.8-.9 1.8-.8 1.8-.8 1.9-.6 1.9-.7 1.9-.5 2-.6 1.9-.4 2-.4 1.9-.4 2-.4 2-.3 2-.3 1.9-.3 2-.3 1.9-.3 1.9-.3 1.9-.3 1.9-.4 1.9-.3 1.9-.4 1.8-.5 1.8-.4 1.9-.5 1.8-.6 1.8-.5 1.8-.7 1.7-.6 1.8-.7 1.8-.7 1.8-.8 1.8-.7 1.7-.8 1.8-.8 1.8-.8 1.9-.9 1.8-.8 1.8-.7 1.9-.8 1.8-.7 1.9-.7 1.9-.7 1.9-.5 2-.6 1.9-.4 2-.4 1.9-.4 2-.2 2-.2 1.9-.1h2l2 .1 2 .1 1.9.3 2 .3 2 .4 1.9.4 1.9.6 2 .5 1.9.7 1.8.7 1.9.7 1.9.7 1.8.8 1.8.8 1.9.8 1.8.8 1.8.8 1.8.8 1.7.8 1.8.8 1.8.7 1.8.7 1.8.6 1.7.7 1.8.5 1.8.6 1.9.5 1.8.5 1.8.4 1.9.4 1.9.4 1.9.3 1.9.3 1.9.3 1.9.3 2 .3 1.9.3 2 .3 2 .4 1.9.3 2 .4 2 .4 1.9.5 2 .5 1.9.5 1.9.6 1.9.7 1.8.8 1.8.8 1.8.9 1.7.9 1.7 1 1.7 1.1 1.6 1.2 1.5 1.2 1.6 1.3 1.4 1.3 1.4 1.5 1.4 1.4 1.3 1.5 1.3 1.5 1.2 1.6 1.3 1.6 1.1 1.7 1.2 1.6 1.1 1.7 1.1 1.6 1.1 1.7 1.1 1.6 1 1.7 1.1 1.6 1.1 1.6 1.1 1.6 1.1 1.6 1.1 1.5 1.2 1.5 1.2 1.5 1.2 1.4 1.2 1.5 1.3 1.4 1.3 1.3 1.3 1.4 1.3 1.3 1.4 1.3 1.5 1.3 1.4 1.4 1.4 1.2 1.5 1.3 1.5 1.3 1.5 1.4 1.5 1.3 1.5 1.3 1.4 1.4 1.5 1.4 1.4 1.4 1.4 1.5 1.3 1.5 1.3 1.5 1.2 1.5 1.2 1.6 1.2 1.7 1 1.7 1 1.7.9 1.7.9 1.8.8 1.8.6 1.9.7 1.9.5 1.9.5 1.9.4 2 .3 1.9.3 2 .2 2 .2 2 .1 2 .1 2 .1 2v2l.1 2v7.9l.1 1.9.1 1.9.1 1.9.1 1.9.2 1.9.2 1.9.2 1.9.3 1.8.3 1.9.4 1.9.4 1.8.4 1.9.5 1.8.5 1.9.5 1.9.5 1.9.6 1.8.5 1.9.5 2 .6 1.9.5 1.9.5 2 .4 1.9.4 2 .4 2 .3 1.9.2 2 .2 2 .1 2v4l-.1 2-.2 1.9-.3 2-.4 1.9-.5 2-.5 1.9-.6 1.9-.7 1.8-.7 1.9-.8 1.8-.9 1.8-.9 1.8-.9 1.8-1 1.7-1 1.8-1.1 1.7-1 1.7-1.1 1.7-1 1.6-1.1 1.7-1 1.6-1 1.7-1 1.6-1 1.7-.9 1.7-.9 1.6-.9 1.7-.8 1.7-.8 1.7-.8 1.8-.7 1.7-.7 1.8-.6 1.8-.7 1.8-.6 1.8-.6 1.8-.5 1.9-.6 1.9-.6 1.9-.5 1.9-.6 1.9-.6 1.9-.7 1.9-.6 1.9-.7 1.8-.8 1.9-.7 1.9-.9 1.8-.9 1.8-.9 1.7-1 1.7-1.1 1.7-1.1 1.6-1.2 1.6-1.3 1.5-1.3 1.5-1.4 1.4-1.4 1.4-1.5 1.3-1.6 1.2-1.6 1.2-1.6 1.2-1.7 1-1.7 1.1-1.8 1-1.7.9-1.8 1-1.8.9-1.8.8-1.8.9-1.8.8-1.8.9-1.8.8-1.7.8-1.8.9-1.7.8-1.7.9-1.7.9-1.6.9-1.6 1-1.7 1-1.5 1-1.6 1.1-1.5 1.1-1.6 1.1-1.5 1.2-1.5 1.1-1.5 1.3-1.5 1.2-1.5 1.3-1.5 1.2-1.5 1.3-1.5 1.3-1.5 1.3-1.5 1.3-1.6 1.2-1.6 1.2-1.6 1.2-1.7 1.2-1.6 1.1-1.7 1.1-1.7 1-1.8.9-1.8.9-1.8.8" opacity=".38"/><path stroke="#b8863f" stroke-linecap="round" stroke-width="2.267" d="m546.7 388.2.5 1.6.6 1.6.5 1.6.6 1.6.7 1.6.6 1.6.6 1.7.6 1.6.6 1.7.5 1.6.5 1.7.5 1.7.3 1.7.4 1.7.2 1.7.1 1.8.1 1.7-.1 1.7-.1 1.7-.3 1.6-.3 1.7-.4 1.6-.5 1.7-.6 1.6-.7 1.6-.8 1.5-.8 1.6-.9 1.5-.9 1.5-1 1.4-1 1.5-1 1.4-1 1.4-1.1 1.4-1 1.4-1 1.4-.9 1.4-.9 1.4-.9 1.4-.8 1.4-.8 1.4-.7 1.4-.7 1.5-.6 1.5-.5 1.5-.5 1.5-.5 1.6-.4 1.6-.3 1.6-.3 1.6-.3 1.7-.3 1.7-.3 1.7-.2 1.7-.3 1.7-.3 1.7-.4 1.8-.3 1.7-.4 1.7-.5 1.7-.5 1.6-.6 1.7-.7 1.6-.7 1.5-.8 1.5-.9 1.5-1 1.4-1 1.3-1.1 1.3-1.2 1.2-1.3 1.2-1.3 1-1.4 1.1-1.4 1-1.5.9-1.5.8-1.6.9-1.6.8-1.6.7-1.6.7-1.5.8-1.6.7-1.6.7-1.6.7-1.5.7-1.5.7-1.4.8-1.4.8-1.4.8-1.4.9-1.3 1-1.2.9-1.2 1.1-1.2 1-1.2 1.2-1.1 1.2-1.1 1.2-1.1 1.2-1.1 1.3-1.1 1.3-1.1 1.4-1.1 1.3-1.1 1.4-1.1 1.3-1.2 1.4-1.1 1.3-1.3 1.2-1.2 1.3-1.3 1.2-1.3 1.1-1.4 1-1.4 1-1.4.9-1.5.8-1.6.8-1.5.6-1.6.5-1.7.5-1.7.4-1.7.2-1.7.2-1.7.2h-5.3l-1.7-.1-1.8-.2-1.7-.2-1.8-.1-1.7-.2-1.7-.2-1.7-.1-1.7-.2-1.6-.1h-1.7l-1.6-.1-1.6.1-1.6.1-1.6.1-1.6.2-1.6.3-1.5.4-1.6.4-1.6.4-1.5.5-1.6.5-1.6.6-1.6.6-1.6.6-1.6.6-1.7.7-1.6.6-1.7.6-1.7.5-1.6.5-1.7.4-1.7.4-1.7.3-1.8.3-1.7.1-1.7.1-1.7-.1-1.7-.1-1.7-.2-1.6-.4-1.7-.4-1.6-.5-1.6-.6-1.6-.7-1.6-.8-1.5-.8-1.5-.9-1.5-.9-1.5-1-1.4-1-1.5-1-1.4-1-1.4-1-1.4-1-1.4-1-1.3-1-1.4-.9-1.4-.9-1.4-.8-1.4-.8-1.5-.7-1.4-.6-1.5-.7-1.5-.5-1.5-.5-1.6-.4-1.6-.4-1.6-.4-1.6-.3-1.7-.3-1.7-.3-1.7-.3-1.7-.2-1.7-.3-1.7-.3-1.8-.3-1.7-.4-1.7-.4-1.7-.5-1.7-.5-1.6-.6-1.6-.6-1.5-.8-1.6-.8-1.4-.8-1.4-1-1.4-1-1.2-1.2-1.2-1.2-1.2-1.2-1.1-1.3-1-1.4-1-1.5-.9-1.4-.9-1.6-.8-1.5-.8-1.6-.8-1.6-.7-1.6-.7-1.6-.7-1.6-.7-1.5-.7-1.6-.8-1.5-.7-1.5-.8-1.4-.8-1.5-.8-1.3-.9-1.4-.9-1.3-1-1.3-1-1.2-1.1-1.2-1.1-1.1-1.2-1.2-1.2-1.1-1.3-1.1-1.3-1.1-1.3-1.1-1.3-1-1.4-1.1-1.3-1.1-1.4-1.2-1.3-1.1-1.3-1.2-1.3-1.2-1.2-1.2-1.2-1.3-1.1-1.3-1.1-1.4-1-1.4-.9-1.5-.8-1.5-.7-1.5-.7-1.6-.5-1.6-.5-1.6-.3-1.7-.3-1.7-.2-1.7-.2-1.7v-5.3l.1-1.7.2-1.8.1-1.7.2-1.8.2-1.7.2-1.7.1-1.7.2-1.7.1-1.6v-1.7l.1-1.6-.1-1.6-.1-1.6-.1-1.6-.2-1.6-.3-1.6-.3-1.6-.4-1.5-.5-1.6-.5-1.6-.5-1.5-.6-1.6-.6-1.6-.6-1.6-.6-1.7-.6-1.6-.6-1.6-.6-1.7-.6-1.7-.5-1.7-.4-1.7-.4-1.7-.3-1.7-.3-1.7-.1-1.7-.1-1.7.1-1.7.1-1.7.2-1.7.3-1.6.5-1.7.5-1.6.6-1.6.7-1.6.7-1.6.8-1.5.9-1.5.9-1.5 1-1.5 1-1.5 1-1.4 1-1.4 1.1-1.4 1-1.4 1-1.4.9-1.4.9-1.4.9-1.4.8-1.4.8-1.4.7-1.4.7-1.5.6-1.4.6-1.5.5-1.6.4-1.5.4-1.6.4-1.6.3-1.6.3-1.7.3-1.7.2-1.7.3-1.7.3-1.7.3-1.8.3-1.7.4-1.7.4-1.7.4-1.7.6-1.7.5-1.6.7-1.6.7-1.6.8-1.5.9-1.4 1-1.4 1-1.4 1.1-1.3 1.2-1.2 1.3-1.1 1.3-1.1 1.4-1.1 1.4-1 1.5-.9 1.5-.9 1.5-.8 1.6-.8 1.6-.7 1.6-.8 1.6-.7 1.6-.7 1.5-.7 1.6-.7 1.5-.7 1.5-.8 1.5-.7 1.4-.8 1.4-.9 1.3-.8 1.3-1 1.3-.9 1.2-1.1 1.2-1 1.2-1.2 1.1-1.1 1.1-1.2 1.1-1.3 1.1-1.3 1.1-1.3 1.1-1.3 1.1-1.4 1.1-1.3 1.1-1.4 1.2-1.3 1.1-1.3 1.2-1.3 1.3-1.3 1.3-1.1 1.3-1.2 1.3-1 1.4-1 1.5-.9 1.5-.9 1.5-.7 1.6-.6 1.6-.6 1.6-.5 1.7-.3 1.7-.3 1.7-.2 1.7-.2h5.3l1.7.1 1.8.2 1.7.1 1.8.2 1.7.2 1.7.2 1.7.1 1.7.2 1.7.1h1.6l1.6.1 1.7-.1 1.6-.1 1.5-.1 1.6-.2 1.6-.3 1.6-.3 1.5-.4 1.6-.5 1.6-.4 1.6-.6 1.6-.6 1.6-.5 1.6-.7 1.6-.6 1.6-.6 1.7-.6 1.6-.6 1.7-.5 1.7-.6 1.7-.4 1.7-.4 1.7-.3 1.7-.3 1.7-.1 1.7-.1 1.7.1 1.7.1 1.7.2 1.7.3 1.6.4 1.6.6 1.6.5 1.6.7 1.6.8 1.5.8 1.6.9 1.5.9 1.4 1 1.5 1 1.4 1 1.4 1 1.4 1 1.4 1 1.4 1 1.4 1 1.4.9 1.4.9 1.4.8 1.4.8 1.4.7 1.5.7 1.5.6 1.5.5 1.5.5 1.5.5 1.6.4 1.6.4 1.7.3 1.6.3 1.7.3 1.7.2 1.7.3 1.7.3 1.8.3 1.7.3 1.7.4 1.7.4 1.7.4 1.7.5 1.6.6 1.6.7 1.6.7 1.5.8 1.5.9 1.4.9 1.3 1 1.3 1.2 1.2 1.1 1.2 1.3 1.1 1.3 1 1.4 1 1.4.9 1.5.9 1.5.8 1.6.8 1.5.8 1.6.7 1.6.8 1.6.7 1.6.7 1.6.7 1.5.7 1.5.7 1.5.8 1.5.8 1.4" opacity=".36"/><path stroke="#b8863f" stroke-linecap="round" stroke-width="2.267" d="m512.7 439.2-.7 1.3-.5 1.2-.5 1.3-.4 1.3-.3 1.4-.2 1.4-.2 1.4-.1 1.5v9.4l-.1 1.6-.1 1.6-.2 1.6-.2 1.5-.3 1.5-.5 1.5-.5 1.4-.6 1.4-.8 1.3-.8 1.2-1 1.1-1 1.1-1.2 1-1.2.9-1.3.8-1.4.8-1.4.7-1.5.7-1.5.6-1.5.6-1.5.5-1.4.6-1.5.5-1.4.6-1.4.5-1.4.7-1.2.6-1.3.7-1.1.8-1.1.8-1 1-1 .9-.9 1.1-.8 1.1-.8 1.2-.8 1.3-.7 1.3-.8 1.3-.7 1.4-.7 1.4-.8 1.4-.7 1.5-.8 1.4-.8 1.3-.9 1.3-1 1.3-1 1.2-1 1.1-1.1 1-1.2.9-1.3.8-1.3.7-1.3.6-1.5.5-1.4.3-1.5.3-1.6.1-1.5.1h-1.6l-1.6-.1-1.6-.2-1.6-.1-1.6-.2-1.6-.3-1.6-.2-1.5-.1-1.5-.2h-1.5l-1.4-.1-1.4.1-1.4.1-1.3.3-1.4.3-1.3.4-1.3.5-1.2.6-1.3.7-1.3.7-1.2.8-1.3.9-1.3.9-1.3.9-1.3.9-1.3.9-1.4.9-1.4.8-1.4.8-1.4.7-1.4.6-1.4.5-1.5.4-1.5.2-1.5.2h-1.4l-1.5-.1-1.5-.3-1.5-.3-1.4-.5-1.4-.6-1.5-.6-1.4-.8-1.3-.8-1.4-.9-1.3-.9-1.3-.9-1.3-.9-1.3-.9-1.3-.9-1.3-.8-1.2-.7-1.3-.7-1.3-.6-1.3-.6-1.3-.4-1.3-.4-1.3-.2-1.4-.2H367l-1.4-.1-1.5.1-1.5.1-1.5.2-1.6.2-1.5.2-1.6.2-1.6.2-1.6.1-1.6.1-1.6.1-1.6-.1-1.5-.1-1.6-.2-1.4-.3-1.5-.5-1.4-.5-1.3-.7-1.3-.7-1.2-.9-1.1-1-1.1-1.1-1-1.2-.9-1.2-.9-1.3-.9-1.4-.8-1.4-.7-1.4-.8-1.4-.7-1.4-.7-1.4-.8-1.4-.7-1.3-.8-1.3-.8-1.2-.8-1.1-.9-1.1-.9-1-1-.9-1.1-.9-1.1-.8-1.2-.7-1.3-.7-1.3-.6-1.4-.6-1.4-.5-1.5-.6-1.4-.5-1.5-.6-1.5-.6-1.5-.6-1.5-.6-1.4-.7-1.4-.8-1.3-.8-1.3-.9-1.2-1-1-1-1-1.1-.9-1.2-.8-1.3-.6-1.3-.6-1.4-.4-1.5-.4-1.5-.3-1.5-.2-1.6-.1-1.6-.1-1.6v-9.4l-.1-1.5-.1-1.4-.2-1.4-.3-1.4-.4-1.3-.4-1.3-.6-1.3-.6-1.2-.7-1.2-.8-1.2-.9-1.2-.9-1.1-1-1.2-1-1.2-1.1-1.1-1-1.2-1.1-1.2-1-1.2-1.1-1.3-.9-1.3-.9-1.3-.8-1.3-.7-1.4-.6-1.4-.5-1.4-.3-1.5-.3-1.4-.1-1.5v-1.5l.2-1.5.2-1.5.4-1.5.5-1.5.5-1.5.6-1.4.7-1.5.7-1.4.8-1.4.7-1.4.8-1.4.7-1.4.7-1.4.6-1.3.6-1.4.5-1.3.3-1.3.4-1.4.2-1.3.1-1.4v-1.4l-.1-1.4-.1-1.4-.2-1.4-.3-1.5-.3-1.5-.4-1.5-.4-1.5-.4-1.6-.4-1.5-.3-1.6-.3-1.6-.3-1.5-.2-1.6-.1-1.6v-1.5l.1-1.5.3-1.5.3-1.5.5-1.4.5-1.3.7-1.3.8-1.3 1-1.2 1-1.2 1.1-1.1 1.1-1.1 1.3-1 1.2-.9 1.3-1 1.4-.9 1.3-.9 1.3-.9 1.3-.9 1.2-.9 1.2-.9 1.1-.9 1.1-.9 1-1 .9-1.1.8-1.1.7-1.1.7-1.2.6-1.3.5-1.3.5-1.4.4-1.4.4-1.5.4-1.5.4-1.5.3-1.5.4-1.6.4-1.6.5-1.5.5-1.5.6-1.5.6-1.4.7-1.4.8-1.3.9-1.2.9-1.2 1.1-1 1.1-1 1.2-.8 1.3-.8 1.4-.6 1.4-.6 1.5-.5 1.5-.4 1.6-.3 1.6-.3 1.6-.2 1.6-.2 1.6-.2 1.5-.2 1.6-.2 1.5-.2 1.5-.2 1.4-.3 1.4-.3 1.3-.5 1.3-.5 1.2-.5 1.2-.7 1.2-.7 1.1-.9 1.1-.9 1.1-1 1-1 1-1.1 1.1-1.2 1-1.2 1-1.2 1.1-1.2 1.1-1.1 1.1-1.2 1.2-1.1 1.1-1.1 1.3-1 1.2-.9 1.3-.7 1.4-.7 1.3-.6 1.5-.5 1.4-.3 1.5-.2 1.5-.1 1.5.1 1.5.1 1.5.3 1.6.3 1.5.4 1.5.5 1.6.6 1.5.5 1.5.6 1.4.6 1.5.5 1.4.6 1.5.4 1.4.4 1.4.4 1.3.2 1.4.2 1.4.1h1.3l1.4-.1 1.4-.2 1.4-.3 1.4-.4 1.4-.4 1.4-.5 1.4-.6 1.5-.5 1.5-.6 1.5-.6 1.5-.5 1.5-.6 1.6-.4 1.5-.4 1.5-.3 1.6-.2 1.5-.1h1.5l1.5.1 1.4.2 1.5.4 1.4.5 1.3.6 1.4.7 1.3.9 1.2.9 1.2 1 1.2 1.1 1.1 1.1 1.1 1.2 1.1 1.2 1 1.2 1.1 1.2 1 1.2 1 1.1 1.1 1.1 1 1 1.1 1 1.1.8 1.1.8 1.2.8 1.2.6 1.3.5 1.3.5 1.3.4 1.4.3 1.5.3 1.5.2 1.5.2 1.6.2 1.5.2 1.6.2 1.6.2 1.6.2 1.6.3 1.5.4 1.5.4 1.5.5 1.4.6 1.4.7 1.2.8 1.2.9 1.1 1 1 1.1 1 1.1.8 1.3.8 1.3.7 1.4.6 1.4.5 1.5.5 1.6.4 1.5.4 1.6.4 1.5.4 1.6.3 1.5.4 1.5.4 1.4.5 1.4.5 1.4.5 1.3.6 1.2.7 1.2.8 1.1.9 1.1.9 1 1 1 1.1 1 1.1.9 1.2.9 1.3.9 1.3.8 1.3.9 1.3.9 1.3 1 1.3.9 1.3 1 1.2 1 1.2 1.1 1 1.1 1 1.2.9 1.3.7 1.2.7 1.4.5 1.3.4 1.5.3 1.4.2 1.5.1 1.6-.1 1.5-.1 1.6-.2 1.5-.3 1.6-.3 1.6-.4 1.6-.4 1.5-.3 1.6-.4 1.5-.4 1.5-.3 1.5-.3 1.4-.2 1.4-.1 1.4v2.8l.2 1.4.2 1.3.4 1.3.4 1.4.5 1.3.6 1.4.7 1.3.7 1.4.7 1.4.7 1.4.8 1.4.7 1.4.7 1.5" opacity=".34"/><path stroke="#5c6570" stroke-linecap="round" stroke-width="2.267" d="m341.9 475.9-1.3-.1h-2.7l-1.3-.1-1.3-.1-1.2-.2-1.2-.2-1.2-.4-1.1-.4-1-.5-.9-.6-.9-.7-.7-.8-.7-.9-.5-1-.5-1-.4-1.2-.3-1.1-.2-1.3-.2-1.3-.1-1.3v-2.6l-.1-1.3v-3.7l-.1-1.2-.2-1.1-.2-1.1-.3-1-.3-.9-.5-.9-.6-.8-.6-.7-.7-.8-.9-.6-.9-.7-1-.5-1-.6-1.1-.6-1.2-.6-1.1-.5-1.2-.6-1.2-.6-1.1-.7-1.1-.6-1-.8-1-.7-.9-.8-.8-.9-.7-.9-.5-1-.5-1-.3-1-.2-1.1v-2.3l.2-1.2.2-1.2.4-1.2.4-1.2.5-1.2.5-1.2.6-1.2.5-1.2.6-1.1.5-1.2.5-1.1.4-1.1.3-1 .3-1.1.1-1 .1-1-.1-1-.1-1-.3-.9-.4-1-.4-.9-.6-1-.6-1-.7-.9-.8-1-.8-1-.8-1.1-.8-1-.8-1.1-.7-1-.7-1.1-.6-1.1-.5-1.1-.5-1.1-.3-1.2-.2-1.1-.1-1.1.1-1.1.2-1.1.3-1 .4-1.1.6-1 .7-1 .7-.9.9-1 .9-.9 1-.8 1-.9 1-.8 1-.9 1-.8.9-.8.9-.8.9-.8.7-.8.7-.8.6-.9.4-.8.4-.9.3-1 .1-1 .1-1v-1.1l-.1-1.1-.2-1.2-.2-1.1-.2-1.3-.3-1.2-.3-1.3-.3-1.3-.2-1.3-.2-1.3-.1-1.2-.1-1.3v-1.2l.1-1.2.2-1.1.3-1.1.5-1 .5-1 .7-.9.7-.8.9-.7 1-.7 1-.6 1.1-.5 1.2-.5 1.2-.4 1.3-.3 1.3-.4 1.2-.3 1.3-.3 1.2-.3 1.2-.3 1.2-.3 1.1-.4 1-.4 1-.5.8-.5.8-.6.7-.7.7-.7.5-.8.5-.9.5-1 .4-1.1.3-1.1.3-1.2.3-1.2.3-1.2.3-1.3.4-1.3.3-1.3.4-1.2.4-1.2.5-1.2.6-1 .6-1.1.7-.9.8-.8.8-.7.9-.6 1-.5 1-.4 1.1-.3 1.2-.1 1.2-.1h1.2l1.3.1 1.3.2 1.3.2 1.3.3 1.3.2 1.2.3 1.3.3 1.2.2 1.1.2 1.2.2h2.1l1-.1 1-.2 1-.3.9-.4.8-.6.9-.6.8-.7.8-.8.8-.8.8-1 .8-.9.8-1 .8-1.1.9-1 .8-.9.9-1 .9-.9 1-.8 1-.7 1-.6 1-.6 1-.3 1.1-.3 1.1-.1h1.1l1.1.1 1.1.2 1.1.4 1.2.5 1.1.5 1.1.7 1 .7 1.1.8 1.1.8 1 .8 1 .8 1 .7 1 .8 1 .7.9.6 1 .5.9.4 1 .3 1 .3.9.1h1l1-.1 1.1-.2 1-.3 1.1-.4 1.1-.4 1.1-.5 1.2-.6 1.1-.5 1.2-.6 1.2-.5 1.2-.5 1.2-.5 1.2-.4 1.2-.3 1.2-.2 1.2-.1h1.2l1.1.1 1 .2 1.1.4 1 .5.9.6.9.7.8.9.8.9.8 1 .7 1.1.6 1.1.6 1.1.6 1.2.6 1.2.6 1.1.5 1.2.6 1 .6 1.1.6.9.7.9.6.8.8.7.8.6.8.5.9.4 1 .4 1 .2 1.1.2 1.1.1 1.2.1h2.5l1.3.1h2.6l1.3.1 1.3.1 1.3.2 1.2.2 1.1.4 1.1.4 1 .5 1 .6.8.7.8.8.6.9.6.9.5 1.1.4 1.1.3 1.2.2 1.2.2 1.3.1 1.3v2.6l.1 1.3v3.8l.1 1.1.2 1.2.2 1 .3 1 .3 1 .5.8.5.9.7.7.7.7.8.7.9.6 1 .6 1.1.6 1.1.6 1.1.5 1.2.6 1.1.6 1.2.6 1.1.6 1.1.7 1.1.7 1 .8.9.8.7.8.7 1 .6.9.4 1 .4 1.1.2 1.1v2.2l-.2 1.2-.2 1.2-.4 1.2-.4 1.2-.5 1.2-.5 1.3-.5 1.1-.6 1.2-.5 1.2-.6 1.1-.4 1.1-.4 1.1-.4 1.1-.3 1-.1 1.1-.1 1 .1.9.1 1 .3 1 .3.9.5 1 .6.9.6 1 .7 1 .8 1 .7 1 .8 1 .8 1 .8 1.1.8 1.1.7 1.1.6 1.1.5 1.1.5 1.1.3 1.1.2 1.1.1 1.1-.1 1.1-.2 1.1-.3 1.1-.4 1-.6 1-.6 1-.8 1-.9.9-.9.9-.9.9-1 .9-1 .8-1 .8-1 .8-1 .8-.9.8-.8.8-.8.8-.7.9-.6.8-.4.9-.4.9-.3.9-.1 1-.1 1.1v1l.1 1.1.2 1.2.2 1.2.2 1.2.3 1.3.3 1.2.2 1.3.3 1.3.2 1.3.1 1.3.1 1.2v1.3l-.1 1.1-.2 1.2-.3 1.1-.5 1-.5.9-.6.9-.8.8-.9.8-.9.7-1.1.5-1.1.6-1.1.4-1.3.5-1.2.3-1.3.4-1.3.3-1.2.3-1.3.3-1.2.3-1.1.3-1.1.4-1.1.4-.9.4-.9.6-.8.6-.7.6-.7.8-.5.8-.5.9-.5 1-.4 1-.3 1.2-.3 1.1-.3 1.2-.3 1.3-.3 1.3-.3 1.2-.4 1.3-.4 1.2-.4 1.3-.5 1.1-.5 1.1-.7 1-.7.9-.7.9-.9.7-.9.6-.9.5-1.1.4-1.1.3-1.2.1-1.2.1h-1.2l-1.3-.1-1.2-.2-1.3-.2-1.3-.2-1.3-.3-1.3-.3-1.2-.3-1.2-.2-1.2-.2-1.1-.1-1.1-.1h-1.1l-1 .1-1 .2-.9.3-.9.4-.9.5-.8.6-.8.7-.9.8-.7.9-.8.9-.8 1-.9 1-.8 1-.8 1-.9 1-.9.9-.9.9-.9.9-1 .7-1 .6-1 .5-1.1.4-1.1.3-1 .1-1.1.1-1.2-.2-1.1-.2-1.1-.4-1.1-.4" opacity=".32"/><path stroke="#b8863f" stroke-linecap="round" stroke-width="2.267" d="m343.7 349.4.6-.6.7-.4.8-.4.9-.2 1-.2h2.2l1.1.1 1.2.1 1.2.2 1.2.2 1.1.2 1.1.2 1 .1h2.7l.8-.2.6-.3.6-.4.5-.6.4-.6.3-.8.3-.8.2-1 .2-1 .2-1.1.2-1.1.2-1.2.2-1.2.2-1.1.3-1.2.3-1 .4-1 .4-.9.5-.8.6-.7.7-.5.7-.4.8-.2.8-.1h.9l1 .2.9.3 1 .4 1 .5 1.1.5 1 .7 1 .6 1 .6.9.7 1 .6.9.5.8.4.8.4.8.2.7.1.7-.1.7-.1.7-.4.6-.4.6-.6.6-.7.6-.8.6-.8.6-1 .7-1 .6-.9.7-1 .7-1 .7-.9.7-.8.8-.8.7-.6.8-.4.8-.4.9-.2h.8l.8.1.8.3.8.5.8.5.7.7.8.8.7.9.7.9.7 1 .6 1 .7 1 .6 1 .6.9.6.8.6.7.6.6.6.5.7.4.6.2.7.1.8-.1.7-.2.8-.3.9-.4.8-.5 1-.5.9-.6 1-.7 1-.6 1-.7 1-.5 1-.6 1-.4 1-.3 1-.3h1.7l.9.2.7.4.7.4.6.7.5.7.5.9.4.9.3 1.1.3 1.1.3 1.1.2 1.2.2 1.2.1 1.1.2 1.2.2 1 .2 1 .3.9.3.8.4.6.5.6.5.4.6.4.7.2.8.1.9.1.9-.1 1-.1 1.1-.2 1.2-.1 1.1-.2 1.2-.2 1.2-.2 1.1-.1h2.3l1 .1.9.2.9.4.7.4.6.5.5.7.4.7.3.8.2.9v2.1l-.1 1.1-.2 1.1-.3 1.2-.3 1.1-.3 1.2-.3 1.1-.3 1.1-.2 1-.2 1-.1.9v.8l.1.8.2.7.3.6.5.5.6.5.7.4.8.4.9.3 1 .3 1 .3 1.2.3 1.1.3 1.1.4 1.2.3 1.1.4 1 .4 1 .5.8.5.8.6.6.7.5.7.3.7.2.8v.9l-.1.8-.3.9-.4 1-.4.9-.6 1-.7.9-.7 1-.8.9-.7.9-.7.9-.7.9-.6.8-.6.8-.4.8-.3.8-.2.7-.1.7.1.7.2.7.4.6.5.7.6.7.7.7.8.7.9.7.9.7.9.7.9.8.9.8.9.8.7.8.7.8.5.9.4.8.3.8.1.9v.8l-.2.8-.4.8-.5.7-.6.7-.8.7-.8.7-1 .6-1 .6-1 .6-1.1.5-1 .6-1.1.5-.9.5-.9.5-.8.5-.7.6-.6.5-.4.6-.3.7-.2.6v.8l.1.7.2.8.3.9.4.9.4 1 .5 1 .6 1.1.5 1 .5 1.1.5 1.1.4 1 .4 1.1.2 1 .1 1 .1.9-.2.8-.2.8-.4.8-.6.6-.6.5-.8.5-.9.4-1 .3-1.1.2-1.1.2-1.2.1-1.2.1-1.1.1h-1.2l-1.1.1-1.1.1-1 .1-1 .2-.8.2-.7.3-.6.4-.5.4-.4.6-.4.7-.2.7-.1.9-.1.9v1.1l.1 1v1.2l.1 1.1.1 1.2v2.4l-.1 1.1-.1 1.1-.2 1-.3 1-.4.8-.5.7-.6.6-.7.4-.7.4-.9.2h-1.9l-1-.1-1.1-.3-1.1-.3-1.1-.4-1.2-.4-1.1-.4-1-.4-1.1-.4-1-.4-1-.2-.9-.3-.8-.1h-.8l-.7.2-.6.2-.6.4-.5.5-.5.6-.5.8-.4.9-.5.9-.4 1-.4 1.1-.4 1.1-.4 1.1-.5 1.1-.5 1.1-.5 1-.6.9-.6.8-.6.7-.7.5-.8.5-.8.2-.8.1h-.8l-.9-.2-.9-.3-.8-.5-.9-.6-.9-.6-.9-.8-.9-.8-.8-.8-.9-.9-.8-.8-.8-.8-.7-.7-.8-.6-.7-.5-.7-.5-.7-.2-.7-.2h-.7l-.7.2-.7.2-.8.4-.7.6-.7.6-.8.7-.8.8-.8.8-.8.8-.9.9-.9.8-.8.7-.9.7-.9.6-.9.5-.9.3-.9.2h-.8l-.8-.1-.8-.2-.7-.4-.7-.6-.7-.7-.6-.8-.6-.9-.5-1-.5-1.1-.5-1.1-.4-1.1-.4-1.1-.4-1-.4-1.1-.4-.9-.5-.9-.4-.7-.5-.7-.6-.5-.6-.4-.6-.2-.7-.2h-.8l-.8.1-.9.2-1 .3-1 .4-1 .4-1.1.4-1.1.4-1.1.4-1.2.4-1.1.3-1 .3-1.1.1h-1.9l-.9-.2-.7-.4-.7-.4-.6-.6-.5-.7-.4-.8-.3-.9-.2-1-.1-1.1-.1-1.2v-2.3l.1-1.2.1-1.2V449l.1-1.1v-1l-.1-1-.1-.8-.2-.8-.3-.7-.4-.5-.6-.5-.6-.4-.7-.3-.8-.2-.9-.2-1-.1-1.1-.1-1.1-.1h-1.2l-1.2-.1-1.2-.1-1.2-.1-1.1-.2-1.1-.2-1-.3-.9-.4-.7-.5-.7-.5-.6-.6-.4-.7-.2-.8-.2-.9v-.9l.2-1 .2-1 .3-1 .5-1.1.4-1.1.6-1.1.5-1 .5-1.1.6-1 .4-.9.4-1 .3-.8.2-.8.1-.8v-.7l-.2-.7-.3-.7-.4-.6-.6-.5-.7-.6-.8-.5-.9-.5-.9-.5-1-.5-1.1-.5-1-.6-1.1-.6-1-.6-.9-.6-.9-.6-.8-.7-.6-.8-.5-.7-.4-.8-.2-.8v-.8l.1-.8.3-.9.4-.8.5-.8.7-.9.7-.8.9-.8.8-.8 1-.7.9-.8.9-.7.8-.7.8-.7.8-.7.6-.7" opacity=".3"/></svg>